# xmcd
#
# Track frame offsets:
#	150
#	17997
#	31386
#	45299
#	53061
#	66360
#	79237
#	94685
#	107049
#	116674
#	131634
#	143579
#	154987
#	172488
#	184548
#	200019
#
# Disc length: 2783 seconds
#
# Revision: 1
# Processed by: cddbd v1.5.2PL0 Copyright (c) Steve Scherf et al.
# Submitted via: audiograbber 1.83.01
#
DISCID=e20add10
DTITLE=Geraint Lovgreen a'r Enw Da - Busnes Anorffenedig
DYEAR=2008
DGENRE=Pop
TTITLE0=Yma Wyf Finna I Fod
TTITLE1=Dwi'n Cael Fy Stalko Gan Sian Lloyd
TTITLE2=Busnes Anorffenedig
TTITLE3=Pobol Od
TTITLE4=Bore Da
TTITLE5=Y Weddi
TTITLE6=Nid eu Hanes Nhw Yw Fy Stori I
TTITLE7=Arrive Alive
TTITLE8=Blws Yn Nulyn
TTITLE9=Can Streicwyr Friction
TTITLE10=Dail Ar Y Lein
TTITLE11=Y Brits
TTITLE12=Canu Gwlad
TTITLE13=Mae Pawb Yn Sant
TTITLE14=Llafnau
TTITLE15=Dyna Lle Nei Di Ffeindio Fi
EXTD=
EXTT0=
EXTT1=
EXTT2=
EXTT3=
EXTT4=
EXTT5=
EXTT6=
EXTT7=
EXTT8=
EXTT9=
EXTT10=
EXTT11=
EXTT12=
EXTT13=
EXTT14=
EXTT15=
PLAYORDER=
